<svg xmlns="http://www.w3.org/2000/svg" width="176.25" height="176.25" viewBox="0 0 176.25 176.25">
  <g id="layer1" transform="translate(-140.209 -120.981)">
    <path id="rect1672-9-7" d="M309.144,126.389a18.367,18.367,0,0,0-26.032,0l-54.779,54.779-54.779-54.779a18.367,18.367,0,0,0-26.032,0l-1.907,1.907a18.367,18.367,0,0,0,0,26.032L200.4,209.106l-54.779,54.779a18.367,18.367,0,0,0,0,26.032l1.907,1.907a18.367,18.367,0,0,0,26.032,0l54.779-54.779,54.779,54.779a18.367,18.367,0,0,0,26.032,0l1.907-1.907a18.367,18.367,0,0,0,0-26.032l-54.779-54.779,54.779-54.779a18.367,18.367,0,0,0,0-26.032Z" transform="translate(0 0)" fill="#f714b9"/>
  </g>
</svg>
